<?xml version="1.0" encoding="utf-8"?>
<svg id="Layer_1" viewBox="0 0 737.732 267.897" xmlns="http://www.w3.org/2000/svg">
  <style>.st0{fill:#26231f}.st1{fill:#70bf44}</style>
  <path id="_x32_" class="st0" d="M 78.917 161.345 C 78.917 178.745 65.417 194.045 48.617 194.045 C 30.617 194.045 18.317 178.845 18.317 161.345 C 18.317 142.845 30.717 128.645 48.617 128.645 C 65.517 128.745 78.917 142.845 78.917 161.345 M 48.617 112.345 C 22.817 112.345 1.417 133.045 1.417 161.345 C 1.417 188.545 22.817 210.345 48.617 210.345 C 73.317 210.345 94.717 188.545 94.717 161.345 C 94.717 133.045 73.317 112.345 48.617 112.345"/>
  <path id="_x33_" class="st0" d="M 134.017 157.045 C 144.117 157.045 154.217 162.445 154.217 174.445 C 154.217 189.645 144.117 194.045 132.817 194.045 C 121.617 194.045 113.717 187.545 113.717 174.445 C 113.817 162.445 123.917 157.045 134.017 157.045 M 170.017 207.145 L 170.017 147.245 C 170.017 122.245 159.917 112.445 136.317 112.445 C 128.417 112.445 118.317 114.645 112.717 115.745 L 108.217 134.245 C 117.217 128.845 126.217 128.845 134.017 128.845 C 146.417 128.845 154.217 129.945 154.217 143.045 L 154.217 150.645 C 148.617 144.145 140.717 141.945 131.717 141.945 C 114.817 141.945 98.017 153.945 98.017 174.645 C 98.017 195.345 110.417 210.545 129.517 210.545 C 140.717 210.545 150.917 208.345 155.317 197.445 L 155.317 210.545 L 170.017 207.145"/>
  <path id="_x34_" class="st0" d="M 188.017 184.245 C 192.517 190.745 198.117 195.145 206.017 195.145 C 212.717 195.145 220.617 191.845 220.617 183.145 C 220.617 159.145 177.917 175.545 177.917 140.645 C 177.917 124.345 190.317 112.345 206.017 112.345 C 218.417 112.345 225.117 115.645 234.117 124.345 L 224.017 136.345 C 218.417 130.945 215.017 127.645 207.117 127.645 C 200.417 127.645 193.617 129.845 193.617 138.545 C 193.617 159.245 236.317 143.945 236.317 181.045 C 236.317 198.445 222.817 210.445 207.117 210.445 C 193.617 210.445 184.617 206.045 176.817 195.245 L 188.017 184.245"/>
  <path id="_x35_" class="st0" d="M 243.017 210.345 L 243.017 114.545 L 259.917 112.345 L 259.917 207.045 L 243.017 210.345 M 250.917 76.445 L 262.117 90.645 L 252.017 104.845 L 240.817 90.645 L 250.917 76.445"/>
  <path id="_x36_" class="st0" d="M 279.017 184.245 C 283.517 190.745 289.117 195.145 297.017 195.145 C 303.717 195.145 311.617 191.845 311.617 183.145 C 311.617 159.145 268.917 175.545 268.917 140.645 C 268.917 124.345 281.317 112.345 297.017 112.345 C 309.417 112.345 316.117 115.645 325.117 124.345 L 315.017 136.345 C 310.517 130.945 306.017 127.645 298.117 127.645 C 291.417 127.645 285.717 129.845 285.717 138.545 C 285.717 159.245 327.317 143.945 327.317 181.045 C 327.317 198.445 313.817 210.445 298.117 210.445 C 284.617 210.445 275.617 206.045 267.817 195.245 L 279.017 184.245"/>
  <path id="_x37_" class="st0" d="M 461.017 161.345 C 461.017 182.045 445.317 199.445 426.217 199.445 C 406.017 199.445 392.517 182.045 392.517 161.345 C 392.517 142.845 406.017 124.345 426.217 124.345 C 444.217 124.345 461.017 137.445 461.017 161.345 M 461.017 131.945 L 459.917 131.945 C 452.017 121.045 440.817 113.445 426.217 113.445 C 401.517 113.445 382.417 134.145 382.417 161.345 C 382.417 189.645 401.517 209.245 426.217 209.245 C 440.817 209.245 453.217 201.645 459.917 191.845 L 461.017 191.845 L 461.017 209.245 L 470.017 207.045 L 470.017 75.345 L 461.017 77.545 L 461.017 131.945"/>
  <path id="_x38_" class="st0" d="M 481.317 209.345 L 481.317 115.645 L 491.417 113.445 L 491.417 207.145 L 481.317 209.345 M 493.617 84.045 L 485.717 93.845 L 477.817 84.045 L 485.717 75.345 L 493.617 84.045"/>
  <path id="_x39_" class="st0" d="M 589.217 209.345 L 589.217 115.645 L 599.317 113.445 L 599.317 207.145 L 589.217 209.345 M 601.517 84.045 L 593.617 93.845 L 585.717 84.045 L 593.617 75.345 L 601.517 84.045"/>
  <path id="_x31_0" class="st0" d="M 618.417 92.745 L 628.517 87.345 L 628.517 115.645 L 652.117 115.645 L 652.117 126.545 L 628.517 126.545 L 628.517 183.145 C 628.517 194.045 633.017 198.345 644.217 198.345 L 652.117 198.345 L 652.117 208.145 C 648.717 208.145 646.517 209.245 643.117 209.245 C 627.417 209.245 618.417 199.445 618.417 183.145 L 618.417 126.545 L 607.217 126.545 L 609.417 115.645 L 618.417 115.645 L 618.417 92.745"/>
  <path id="_x31_1" class="st0" d="M 662.217 177.745 C 662.217 162.545 671.217 153.745 684.717 153.745 C 697.117 153.745 706.117 162.445 706.117 176.645 C 706.117 189.745 697.117 199.545 684.717 199.545 C 673.417 199.545 662.217 190.745 662.217 177.745 M 661.117 130.845 C 667.817 128.645 678.017 124.345 685.817 124.345 C 697.017 124.345 706.017 130.845 706.017 138.545 L 706.017 153.745 C 700.417 148.345 691.417 142.845 683.617 142.845 C 664.517 142.845 652.117 157.045 652.117 177.645 C 652.117 197.245 666.717 209.245 684.717 209.245 C 694.817 209.245 701.617 204.845 704.917 198.345 L 706.017 198.345 L 706.017 209.245 L 716.117 207.045 L 716.117 136.245 C 716.117 121.045 702.617 113.345 689.117 113.345 C 680.117 113.345 672.217 115.545 664.417 118.745 L 661.117 130.845"/>
  <path id="_x31_2" class="st0" d="M 735.317 207.145 L 725.217 209.345 L 725.217 77.545 L 735.317 75.345 L 735.317 207.145"/>
  <path id="_x31_3" class="st0" d="M 538.617 127.645 C 554.317 127.645 570.117 141.845 570.117 164.645 C 570.117 187.445 553.217 199.445 538.617 199.445 C 522.917 199.445 507.117 187.445 507.117 164.645 C 507.117 141.845 522.917 127.645 538.617 127.645 M 501.517 234.345 C 513.917 264.845 539.717 264.845 539.717 264.845 C 582.417 264.845 579.017 219.145 579.017 219.145 L 579.017 165.745 C 579.017 149.445 575.617 138.545 567.817 129.845 L 565.617 128.745 C 566.717 129.845 569.017 129.845 571.217 129.845 C 573.417 129.845 575.717 129.845 579.117 127.645 L 582.517 112.445 C 572.417 115.745 561.117 117.845 549.917 117.845 C 546.517 117.845 542.017 116.745 538.717 116.745 C 516.217 116.745 498.217 135.245 498.217 166.845 C 498.217 181.045 506.117 197.345 516.217 202.745 C 516.217 202.745 543.217 222.345 566.817 199.445 L 569.017 195.045 L 569.017 220.045 C 569.017 258.145 539.817 253.845 539.817 253.845 C 520.717 253.845 516.217 238.645 511.717 232.045 L 501.517 234.345"/>
  <path id="_x31_4" class="st1" d="M 436.317 88.445 C 436.317 61.245 410.517 43.745 380.117 35.045 L 376.717 40.445 C 407.017 48.045 429.517 67.645 429.517 93.845 L 436.317 88.445"/>
  <path id="_x31_5" class="st1" d="M 292.517 60.145 C 302.617 35.145 333.017 29.645 367.817 31.845 L 362.217 38.345 C 326.217 41.645 307.117 42.745 298.117 67.745 L 292.517 60.145"/>
  <path id="_x31_6" d="M 375.617 31.745 C 375.617 31.745 352.017 57.845 364.417 126.445 C 364.417 126.445 389.117 199.445 341.917 210.345 L 335.217 194.045 C 335.217 194.045 366.717 185.345 350.917 127.645 C 350.917 127.645 331.817 79.745 375.617 31.745" fill="#029049"/>
  <path id="_x31_7" class="st1" d="M 308.217 8.945 C 328.417 -6.355 352.017 6.745 373.417 25.245 L 371.217 28.545 C 345.417 13.345 330.717 1.345 307.117 16.545 L 308.217 8.945"/>
  <path id="_x31_8" class="st1" d="M 453.217 30.745 C 436.317 11.145 411.617 13.345 383.517 26.345 L 380.117 30.745 C 408.217 17.645 435.217 18.745 453.117 39.445 L 453.217 30.745"/>
</svg>